<?xml version="1.0" encoding="UTF-8" standalone="no"?>
<!DOCTYPE svg PUBLIC "-//W3C//DTD SVG 1.1//EN" "http://www.w3.org/Graphics/SVG/1.1/DTD/svg11.dtd">
<svg width="100%" height="100%" viewBox="0 0 1173 223" version="1.1" xmlns="http://www.w3.org/2000/svg" xmlns:xlink="http://www.w3.org/1999/xlink" xml:space="preserve" xmlns:serif="http://www.serif.com/" style="fill-rule:evenodd;clip-rule:evenodd;stroke-linecap:round;stroke-linejoin:round;stroke-miterlimit:1.5;">
    <g transform="matrix(1,0,0,1,-13.1347,-275.633)">
        <g>
            <g transform="matrix(0.352971,0,0,0.352971,54.3283,315.808)">
                <path d="M282.362,398.799C320.927,453.255 365.266,449.968 414.394,398.799" style="fill:none;stroke:black;stroke-width:35.37px;"/>
            </g>
            <g transform="matrix(0.352971,0,0,0.352971,54.3283,315.808)">
                <path d="M253.755,418.609C301.582,477.773 348.963,473.427 414.394,398.799" style="fill:none;stroke:black;stroke-width:35.37px;"/>
            </g>
            <g transform="matrix(0.352971,0,0,0.352971,54.3283,315.808)">
                <path d="M955.725,438.418C993.916,491.233 1025.36,489.171 1045.95,398.799" style="fill:none;stroke:black;stroke-width:35.37px;"/>
            </g>
            <g transform="matrix(0.352971,0,0,0.352971,54.3283,315.808)">
                <path d="M937.24,473.454C964.205,520.428 989.935,511.453 1013.38,398.799" style="fill:none;stroke:black;stroke-width:35.37px;"/>
            </g>
            <g transform="matrix(0.352971,0,0,0.352971,54.3283,315.808)">
                <g transform="matrix(0.952431,0,0,1,10.7456,-5.68434e-14)">
                    <path d="M388.496,241.495L470.328,375.59L1610,375.59L1610,155.737L389.699,155.737L388.496,241.495Z" style="fill:url(#_Linear1);"/>
                </g>
                <g>
                    <path d="M306.04,237.89L267.768,276.162L267.768,296.983L328.562,357.777L365.7,357.777L292.668,286.998L339.769,237.644L306.04,237.89Z" style="fill:url(#_Linear2);stroke:rgb(30,45,57);stroke-width:7.55px;"/>
                    <path d="M362.206,352.381L362.206,290.297L486.14,230.091L530.855,234.091L390.344,301.711L390.344,357.777L362.91,357.777L362.206,352.381Z" style="fill:url(#_Linear3);stroke:rgb(30,45,57);stroke-width:7.55px;"/>
                    <path d="M515.515,237.644L636.052,358.181L646.868,358.181L794.044,239.694L754.581,239.694L642.228,328.047L542.649,228.468L515.515,237.644Z" style="fill:url(#_Linear4);stroke:rgb(30,45,57);stroke-width:7.55px;"/>
                    <g transform="matrix(1,0,0,1,254.558,0)">
                        <path d="M515.515,237.644L636.052,358.181L646.868,358.181L794.044,239.694L754.581,239.694L642.228,328.047L542.649,228.468L515.515,237.644Z" style="fill:url(#_Linear5);stroke:rgb(30,45,57);stroke-width:7.55px;"/>
                    </g>
                    <g transform="matrix(1,0,0,1,509.115,0)">
                        <path d="M515.515,237.644L636.052,358.181L646.868,358.181L794.044,239.694L754.581,239.694L642.228,328.047L542.649,228.468L515.515,237.644Z" style="fill:url(#_Linear6);stroke:rgb(30,45,57);stroke-width:7.55px;"/>
                    </g>
                    <g transform="matrix(1,0,0,1,764.729,0)">
                        <path d="M515.515,237.644L636.052,358.181L646.868,358.181L794.044,239.694L754.581,239.694L642.228,328.047L542.649,228.468L515.515,237.644Z" style="fill:url(#_Linear7);stroke:rgb(30,45,57);stroke-width:7.55px;"/>
                    </g>
                </g>
                <g transform="matrix(0.952431,0,0,1,10.7456,16)">
                    <path d="M237.526,382.799L1610,382.799L1610,336.381L226.351,336.381C224.677,351.854 227.463,367.326 237.526,382.799Z" style="fill:url(#_Linear8);"/>
                </g>
                <g transform="matrix(0.877286,0,0,1.38889,131.729,-364.954)">
                    <path d="M237.526,382.799L1610,382.799L1610,336.381L327.138,336.381C288.938,350.933 260.435,366.557 237.526,382.799Z" style="fill:url(#_Linear9);"/>
                </g>
                <g transform="matrix(0.923814,0,0,1.38889,56.8192,-290.17)">
                    <path d="M237.526,382.799L1610,382.799L1610,336.381L302.526,336.381C269.58,350.856 253.514,366.632 237.526,382.799Z" style="fill:url(#_Linear10);"/>
                </g>
            </g>
            <g transform="matrix(0.352971,0,0,0.352971,54.3283,315.808)">
                <path d="M844.244,473.176L948.98,473.176L897.056,259.174L790.881,259.174L844.244,473.176Z" style="fill:url(#_Linear11);stroke:rgb(36,50,62);stroke-width:7.55px;"/>
            </g>
            <g transform="matrix(0.352971,0,0,0.352971,54.3283,315.808)">
                <path d="M898.157,259.174L928.7,187.019L973.437,393.164L948.98,473.176L898.157,259.174Z" style="fill:url(#_Linear12);stroke:rgb(36,50,62);stroke-width:7.55px;"/>
            </g>
            <g transform="matrix(0.352971,1.95938e-17,0,0.352971,54.3283,315.808)">
                <path d="M790.881,259.174L831.524,187.019L928.7,187.019L898.157,259.174L790.881,259.174Z" style="fill:rgb(56,76,93);stroke:rgb(30,45,57);stroke-width:2.83px;"/>
            </g>
            <g transform="matrix(0.255564,-0.182509,0.182691,0.255819,-45.927,430.391)">
                <rect x="383.634" y="208.676" width="107.276" height="231.606" style="fill:url(#_Linear13);stroke:rgb(30,45,57);stroke-width:8.49px;"/>
            </g>
        </g>
        <g transform="matrix(-1,0,0,1,1198.31,0)">
            <g transform="matrix(0.352971,0,0,0.352971,54.3283,315.808)">
                <path d="M282.362,398.799C320.927,453.255 365.266,449.968 414.394,398.799" style="fill:none;stroke:black;stroke-width:35.37px;"/>
            </g>
            <g transform="matrix(0.352971,0,0,0.352971,54.3283,315.808)">
                <path d="M253.755,418.609C301.582,477.773 348.963,473.427 414.394,398.799" style="fill:none;stroke:black;stroke-width:35.37px;"/>
            </g>
            <g transform="matrix(0.352971,0,0,0.352971,54.3283,315.808)">
                <path d="M955.725,438.418C993.916,491.233 1025.36,489.171 1045.95,398.799" style="fill:none;stroke:black;stroke-width:35.37px;"/>
            </g>
            <g transform="matrix(0.352971,0,0,0.352971,54.3283,315.808)">
                <path d="M937.24,473.454C964.205,520.428 989.935,511.453 1013.38,398.799" style="fill:none;stroke:black;stroke-width:35.37px;"/>
            </g>
            <g transform="matrix(0.352971,0,0,0.352971,54.3283,315.808)">
                <g transform="matrix(0.952431,0,0,1,10.7456,-5.68434e-14)">
                    <path d="M388.496,241.495L470.328,375.59L1610,375.59L1610,155.737L389.699,155.737L388.496,241.495Z" style="fill:url(#_Linear14);"/>
                </g>
                <g>
                    <path d="M306.04,237.89L267.768,276.162L267.768,296.983L328.562,357.777L365.7,357.777L292.668,286.998L339.769,237.644L306.04,237.89Z" style="fill:url(#_Linear15);stroke:rgb(30,45,57);stroke-width:7.55px;"/>
                    <path d="M362.206,352.381L362.206,290.297L486.14,230.091L530.855,234.091L390.344,301.711L390.344,357.777L362.91,357.777L362.206,352.381Z" style="fill:url(#_Linear16);stroke:rgb(30,45,57);stroke-width:7.55px;"/>
                    <path d="M515.515,237.644L636.052,358.181L646.868,358.181L794.044,239.694L754.581,239.694L642.228,328.047L542.649,228.468L515.515,237.644Z" style="fill:url(#_Linear17);stroke:rgb(30,45,57);stroke-width:7.55px;"/>
                    <g transform="matrix(1,0,0,1,254.558,0)">
                        <path d="M515.515,237.644L636.052,358.181L646.868,358.181L794.044,239.694L754.581,239.694L642.228,328.047L542.649,228.468L515.515,237.644Z" style="fill:url(#_Linear18);stroke:rgb(30,45,57);stroke-width:7.55px;"/>
                    </g>
                    <g transform="matrix(1,0,0,1,509.115,0)">
                        <path d="M515.515,237.644L636.052,358.181L646.868,358.181L794.044,239.694L754.581,239.694L642.228,328.047L542.649,228.468L515.515,237.644Z" style="fill:url(#_Linear19);stroke:rgb(30,45,57);stroke-width:7.55px;"/>
                    </g>
                    <g transform="matrix(1,0,0,1,764.729,0)">
                        <clipPath id="_clip20">
                            <rect x="515.515" y="228.468" width="263.916" height="129.713"/>
                        </clipPath>
                        <g clip-path="url(#_clip20)">
                            <path d="M515.515,237.644L636.052,358.181L646.868,358.181L794.044,239.694L754.581,239.694L642.228,328.047L542.649,228.468L515.515,237.644Z" style="fill:url(#_Linear21);stroke:rgb(30,45,57);stroke-width:7.55px;"/>
                        </g>
                    </g>
                </g>
                <g transform="matrix(0.952431,0,0,1,10.7456,16)">
                    <path d="M237.526,382.799L1610,382.799L1610,336.381L226.351,336.381C224.677,351.854 227.463,367.326 237.526,382.799Z" style="fill:url(#_Linear22);"/>
                </g>
                <g transform="matrix(0.877286,0,0,1.38889,131.729,-364.954)">
                    <path d="M237.526,382.799L1610,382.799L1610,336.381L327.138,336.381C288.938,350.933 260.435,366.557 237.526,382.799Z" style="fill:url(#_Linear23);"/>
                </g>
                <g transform="matrix(0.923814,0,0,1.38889,56.8192,-290.17)">
                    <path d="M237.526,382.799L1610,382.799L1610,336.381L302.526,336.381C269.58,350.856 253.514,366.632 237.526,382.799Z" style="fill:url(#_Linear24);"/>
                </g>
            </g>
            <g transform="matrix(0.352971,0,0,0.352971,54.3283,315.808)">
                <path d="M844.244,473.176L948.98,473.176L897.056,259.174L790.881,259.174L844.244,473.176Z" style="fill:url(#_Linear25);stroke:rgb(36,50,62);stroke-width:7.55px;"/>
            </g>
            <g transform="matrix(0.352971,0,0,0.352971,54.3283,315.808)">
                <path d="M898.157,259.174L928.7,187.019L973.437,393.164L948.98,473.176L898.157,259.174Z" style="fill:url(#_Linear26);stroke:rgb(36,50,62);stroke-width:7.55px;"/>
            </g>
            <g transform="matrix(0.352971,1.95938e-17,0,0.352971,54.3283,315.808)">
                <path d="M790.881,259.174L831.524,187.019L928.7,187.019L898.157,259.174L790.881,259.174Z" style="fill:rgb(56,76,93);stroke:rgb(30,45,57);stroke-width:2.83px;"/>
            </g>
            <g transform="matrix(0.255564,-0.182509,0.182691,0.255819,-45.927,430.391)">
                <rect x="383.634" y="208.676" width="107.276" height="231.606" style="fill:url(#_Linear27);stroke:rgb(36,50,62);stroke-width:8.49px;"/>
            </g>
        </g>
    </g>
    <defs>
        <linearGradient id="_Linear1" x1="0" y1="0" x2="1" y2="0" gradientUnits="userSpaceOnUse" gradientTransform="matrix(1.32955e-14,-206.803,217.132,1.2663e-14,1111.39,366.175)"><stop offset="0" style="stop-color:black;stop-opacity:1"/><stop offset="1" style="stop-color:rgb(23,28,33);stop-opacity:1"/></linearGradient>
        <linearGradient id="_Linear2" x1="0" y1="0" x2="1" y2="0" gradientUnits="userSpaceOnUse" gradientTransform="matrix(6.73691e-15,-110.022,110.022,6.73691e-15,334.198,351.517)"><stop offset="0" style="stop-color:rgb(20,27,33);stop-opacity:1"/><stop offset="0.09" style="stop-color:rgb(36,49,60);stop-opacity:1"/><stop offset="0.2" style="stop-color:rgb(52,70,87);stop-opacity:1"/><stop offset="0.5" style="stop-color:rgb(59,79,98);stop-opacity:1"/><stop offset="0.8" style="stop-color:rgb(51,70,87);stop-opacity:1"/><stop offset="0.91" style="stop-color:rgb(32,48,62);stop-opacity:1"/><stop offset="1" style="stop-color:rgb(13,26,37);stop-opacity:1"/></linearGradient>
        <linearGradient id="_Linear3" x1="0" y1="0" x2="1" y2="0" gradientUnits="userSpaceOnUse" gradientTransform="matrix(6.73691e-15,-110.022,110.022,6.73691e-15,376.888,351.517)"><stop offset="0" style="stop-color:rgb(20,27,33);stop-opacity:1"/><stop offset="0.09" style="stop-color:rgb(36,49,60);stop-opacity:1"/><stop offset="0.2" style="stop-color:rgb(52,70,87);stop-opacity:1"/><stop offset="0.5" style="stop-color:rgb(59,79,98);stop-opacity:1"/><stop offset="0.8" style="stop-color:rgb(51,70,87);stop-opacity:1"/><stop offset="0.91" style="stop-color:rgb(32,48,62);stop-opacity:1"/><stop offset="1" style="stop-color:rgb(13,26,37);stop-opacity:1"/></linearGradient>
        <linearGradient id="_Linear4" x1="0" y1="0" x2="1" y2="0" gradientUnits="userSpaceOnUse" gradientTransform="matrix(6.78983e-15,-110.886,110.886,6.78983e-15,642.56,352.381)"><stop offset="0" style="stop-color:rgb(20,27,33);stop-opacity:1"/><stop offset="0.09" style="stop-color:rgb(36,49,60);stop-opacity:1"/><stop offset="0.2" style="stop-color:rgb(52,70,87);stop-opacity:1"/><stop offset="0.5" style="stop-color:rgb(59,79,98);stop-opacity:1"/><stop offset="0.8" style="stop-color:rgb(51,70,87);stop-opacity:1"/><stop offset="0.91" style="stop-color:rgb(32,48,62);stop-opacity:1"/><stop offset="1" style="stop-color:rgb(13,26,37);stop-opacity:1"/></linearGradient>
        <linearGradient id="_Linear5" x1="0" y1="0" x2="1" y2="0" gradientUnits="userSpaceOnUse" gradientTransform="matrix(6.89888e-15,-112.667,112.667,6.89888e-15,643.633,351.957)"><stop offset="0" style="stop-color:rgb(20,27,33);stop-opacity:1"/><stop offset="0.09" style="stop-color:rgb(36,49,60);stop-opacity:1"/><stop offset="0.2" style="stop-color:rgb(52,70,87);stop-opacity:1"/><stop offset="0.5" style="stop-color:rgb(59,79,98);stop-opacity:1"/><stop offset="0.8" style="stop-color:rgb(51,70,87);stop-opacity:1"/><stop offset="0.91" style="stop-color:rgb(32,48,62);stop-opacity:1"/><stop offset="1" style="stop-color:rgb(13,26,37);stop-opacity:1"/></linearGradient>
        <linearGradient id="_Linear6" x1="0" y1="0" x2="1" y2="0" gradientUnits="userSpaceOnUse" gradientTransform="matrix(6.78983e-15,-110.886,110.886,6.78983e-15,641.98,352.381)"><stop offset="0" style="stop-color:rgb(20,27,33);stop-opacity:1"/><stop offset="0.09" style="stop-color:rgb(36,49,60);stop-opacity:1"/><stop offset="0.2" style="stop-color:rgb(52,70,87);stop-opacity:1"/><stop offset="0.5" style="stop-color:rgb(59,79,98);stop-opacity:1"/><stop offset="0.8" style="stop-color:rgb(51,70,87);stop-opacity:1"/><stop offset="0.91" style="stop-color:rgb(32,48,62);stop-opacity:1"/><stop offset="1" style="stop-color:rgb(13,26,37);stop-opacity:1"/></linearGradient>
        <linearGradient id="_Linear7" x1="0" y1="0" x2="1" y2="0" gradientUnits="userSpaceOnUse" gradientTransform="matrix(6.78983e-15,110.886,-110.886,6.78983e-15,645.227,241.495)"><stop offset="0" style="stop-color:rgb(20,27,33);stop-opacity:1"/><stop offset="0.09" style="stop-color:rgb(36,49,60);stop-opacity:1"/><stop offset="0.2" style="stop-color:rgb(52,70,87);stop-opacity:1"/><stop offset="0.5" style="stop-color:rgb(59,79,98);stop-opacity:1"/><stop offset="0.8" style="stop-color:rgb(51,70,87);stop-opacity:1"/><stop offset="0.91" style="stop-color:rgb(32,48,62);stop-opacity:1"/><stop offset="1" style="stop-color:rgb(13,26,37);stop-opacity:1"/></linearGradient>
        <linearGradient id="_Linear8" x1="0" y1="0" x2="1" y2="0" gradientUnits="userSpaceOnUse" gradientTransform="matrix(2.84225e-15,-46.4175,46.4175,2.84225e-15,905.422,382.799)"><stop offset="0" style="stop-color:rgb(21,25,27);stop-opacity:1"/><stop offset="0.3" style="stop-color:rgb(50,60,66);stop-opacity:1"/><stop offset="0.5" style="stop-color:rgb(70,86,97);stop-opacity:1"/><stop offset="0.7" style="stop-color:rgb(27,33,37);stop-opacity:1"/><stop offset="1" style="stop-color:rgb(15,19,22);stop-opacity:1"/></linearGradient>
        <linearGradient id="_Linear9" x1="0" y1="0" x2="1" y2="0" gradientUnits="userSpaceOnUse" gradientTransform="matrix(2.84225e-15,-46.4175,46.4175,2.84225e-15,905.422,382.799)"><stop offset="0" style="stop-color:rgb(21,25,27);stop-opacity:1"/><stop offset="0.3" style="stop-color:rgb(50,60,66);stop-opacity:1"/><stop offset="0.5" style="stop-color:rgb(70,86,97);stop-opacity:1"/><stop offset="0.7" style="stop-color:rgb(27,33,37);stop-opacity:1"/><stop offset="1" style="stop-color:rgb(15,19,22);stop-opacity:1"/></linearGradient>
        <linearGradient id="_Linear10" x1="0" y1="0" x2="1" y2="0" gradientUnits="userSpaceOnUse" gradientTransform="matrix(2.84225e-15,-46.4175,46.4175,2.84225e-15,905.422,382.799)"><stop offset="0" style="stop-color:rgb(21,25,27);stop-opacity:1"/><stop offset="0.3" style="stop-color:rgb(50,60,66);stop-opacity:1"/><stop offset="0.5" style="stop-color:rgb(70,86,97);stop-opacity:1"/><stop offset="0.7" style="stop-color:rgb(27,33,37);stop-opacity:1"/><stop offset="1" style="stop-color:rgb(15,19,22);stop-opacity:1"/></linearGradient>
        <linearGradient id="_Linear11" x1="0" y1="0" x2="1" y2="0" gradientUnits="userSpaceOnUse" gradientTransform="matrix(55.5634,214.28,-214.28,55.5634,838.872,259.174)"><stop offset="0" style="stop-color:rgb(49,65,80);stop-opacity:1"/><stop offset="1" style="stop-color:rgb(9,13,18);stop-opacity:1"/></linearGradient>
        <linearGradient id="_Linear12" x1="0" y1="0" x2="1" y2="0" gradientUnits="userSpaceOnUse" gradientTransform="matrix(52.2626,198.161,-198.161,52.2626,910.389,230.882)"><stop offset="0" style="stop-color:rgb(42,53,64);stop-opacity:1"/><stop offset="1" style="stop-color:rgb(15,18,20);stop-opacity:1"/></linearGradient>
        <linearGradient id="_Linear13" x1="0" y1="0" x2="1" y2="0" gradientUnits="userSpaceOnUse" gradientTransform="matrix(-0.354448,226.887,-227.113,-0.354095,430.859,209.926)"><stop offset="0" style="stop-color:rgb(110,144,175);stop-opacity:1"/><stop offset="1" style="stop-color:rgb(42,61,78);stop-opacity:1"/></linearGradient>
        <linearGradient id="_Linear14" x1="0" y1="0" x2="1" y2="0" gradientUnits="userSpaceOnUse" gradientTransform="matrix(-1.41345e-14,-219.854,43.622,-2.54402e-15,1067.9,375.59)"><stop offset="0" style="stop-color:black;stop-opacity:1"/><stop offset="1" style="stop-color:rgb(23,28,33);stop-opacity:1"/></linearGradient>
        <linearGradient id="_Linear15" x1="0" y1="0" x2="1" y2="0" gradientUnits="userSpaceOnUse" gradientTransform="matrix(6.73691e-15,-110.022,110.022,6.73691e-15,334.198,351.517)"><stop offset="0" style="stop-color:rgb(20,27,33);stop-opacity:1"/><stop offset="0.09" style="stop-color:rgb(36,49,60);stop-opacity:1"/><stop offset="0.2" style="stop-color:rgb(52,70,87);stop-opacity:1"/><stop offset="0.5" style="stop-color:rgb(59,79,98);stop-opacity:1"/><stop offset="0.8" style="stop-color:rgb(51,70,87);stop-opacity:1"/><stop offset="0.91" style="stop-color:rgb(32,48,62);stop-opacity:1"/><stop offset="1" style="stop-color:rgb(13,26,37);stop-opacity:1"/></linearGradient>
        <linearGradient id="_Linear16" x1="0" y1="0" x2="1" y2="0" gradientUnits="userSpaceOnUse" gradientTransform="matrix(6.73691e-15,-110.022,110.022,6.73691e-15,376.888,351.517)"><stop offset="0" style="stop-color:rgb(20,27,33);stop-opacity:1"/><stop offset="0.09" style="stop-color:rgb(36,49,60);stop-opacity:1"/><stop offset="0.2" style="stop-color:rgb(52,70,87);stop-opacity:1"/><stop offset="0.5" style="stop-color:rgb(59,79,98);stop-opacity:1"/><stop offset="0.8" style="stop-color:rgb(51,70,87);stop-opacity:1"/><stop offset="0.91" style="stop-color:rgb(32,48,62);stop-opacity:1"/><stop offset="1" style="stop-color:rgb(13,26,37);stop-opacity:1"/></linearGradient>
        <linearGradient id="_Linear17" x1="0" y1="0" x2="1" y2="0" gradientUnits="userSpaceOnUse" gradientTransform="matrix(6.78983e-15,-110.886,110.886,6.78983e-15,642.56,352.381)"><stop offset="0" style="stop-color:rgb(20,27,33);stop-opacity:1"/><stop offset="0.09" style="stop-color:rgb(36,49,60);stop-opacity:1"/><stop offset="0.2" style="stop-color:rgb(52,70,87);stop-opacity:1"/><stop offset="0.5" style="stop-color:rgb(59,79,98);stop-opacity:1"/><stop offset="0.8" style="stop-color:rgb(51,70,87);stop-opacity:1"/><stop offset="0.91" style="stop-color:rgb(32,48,62);stop-opacity:1"/><stop offset="1" style="stop-color:rgb(13,26,37);stop-opacity:1"/></linearGradient>
        <linearGradient id="_Linear18" x1="0" y1="0" x2="1" y2="0" gradientUnits="userSpaceOnUse" gradientTransform="matrix(6.89888e-15,-112.667,112.667,6.89888e-15,643.633,351.957)"><stop offset="0" style="stop-color:rgb(20,27,33);stop-opacity:1"/><stop offset="0.09" style="stop-color:rgb(36,49,60);stop-opacity:1"/><stop offset="0.2" style="stop-color:rgb(52,70,87);stop-opacity:1"/><stop offset="0.5" style="stop-color:rgb(59,79,98);stop-opacity:1"/><stop offset="0.8" style="stop-color:rgb(51,70,87);stop-opacity:1"/><stop offset="0.91" style="stop-color:rgb(32,48,62);stop-opacity:1"/><stop offset="1" style="stop-color:rgb(13,26,37);stop-opacity:1"/></linearGradient>
        <linearGradient id="_Linear19" x1="0" y1="0" x2="1" y2="0" gradientUnits="userSpaceOnUse" gradientTransform="matrix(6.78983e-15,-110.886,110.886,6.78983e-15,641.98,352.381)"><stop offset="0" style="stop-color:rgb(20,27,33);stop-opacity:1"/><stop offset="0.09" style="stop-color:rgb(36,49,60);stop-opacity:1"/><stop offset="0.2" style="stop-color:rgb(52,70,87);stop-opacity:1"/><stop offset="0.5" style="stop-color:rgb(59,79,98);stop-opacity:1"/><stop offset="0.8" style="stop-color:rgb(51,70,87);stop-opacity:1"/><stop offset="0.91" style="stop-color:rgb(32,48,62);stop-opacity:1"/><stop offset="1" style="stop-color:rgb(13,26,37);stop-opacity:1"/></linearGradient>
        <linearGradient id="_Linear21" x1="0" y1="0" x2="1" y2="0" gradientUnits="userSpaceOnUse" gradientTransform="matrix(6.78983e-15,110.886,-110.886,6.78983e-15,645.227,241.495)"><stop offset="0" style="stop-color:rgb(20,27,33);stop-opacity:1"/><stop offset="0.09" style="stop-color:rgb(36,49,60);stop-opacity:1"/><stop offset="0.2" style="stop-color:rgb(52,70,87);stop-opacity:1"/><stop offset="0.5" style="stop-color:rgb(59,79,98);stop-opacity:1"/><stop offset="0.8" style="stop-color:rgb(51,70,87);stop-opacity:1"/><stop offset="0.91" style="stop-color:rgb(32,48,62);stop-opacity:1"/><stop offset="1" style="stop-color:rgb(13,26,37);stop-opacity:1"/></linearGradient>
        <linearGradient id="_Linear22" x1="0" y1="0" x2="1" y2="0" gradientUnits="userSpaceOnUse" gradientTransform="matrix(2.84225e-15,-46.4175,46.4175,2.84225e-15,905.422,382.799)"><stop offset="0" style="stop-color:rgb(21,25,27);stop-opacity:1"/><stop offset="0.3" style="stop-color:rgb(50,60,66);stop-opacity:1"/><stop offset="0.5" style="stop-color:rgb(70,86,97);stop-opacity:1"/><stop offset="0.7" style="stop-color:rgb(27,33,37);stop-opacity:1"/><stop offset="1" style="stop-color:rgb(15,19,22);stop-opacity:1"/></linearGradient>
        <linearGradient id="_Linear23" x1="0" y1="0" x2="1" y2="0" gradientUnits="userSpaceOnUse" gradientTransform="matrix(2.84225e-15,-46.4175,46.4175,2.84225e-15,905.422,382.799)"><stop offset="0" style="stop-color:rgb(21,25,27);stop-opacity:1"/><stop offset="0.3" style="stop-color:rgb(50,60,66);stop-opacity:1"/><stop offset="0.5" style="stop-color:rgb(70,86,97);stop-opacity:1"/><stop offset="0.7" style="stop-color:rgb(27,33,37);stop-opacity:1"/><stop offset="1" style="stop-color:rgb(15,19,22);stop-opacity:1"/></linearGradient>
        <linearGradient id="_Linear24" x1="0" y1="0" x2="1" y2="0" gradientUnits="userSpaceOnUse" gradientTransform="matrix(2.84225e-15,-46.4175,46.4175,2.84225e-15,905.422,382.799)"><stop offset="0" style="stop-color:rgb(21,25,27);stop-opacity:1"/><stop offset="0.3" style="stop-color:rgb(50,60,66);stop-opacity:1"/><stop offset="0.5" style="stop-color:rgb(70,86,97);stop-opacity:1"/><stop offset="0.7" style="stop-color:rgb(27,33,37);stop-opacity:1"/><stop offset="1" style="stop-color:rgb(15,19,22);stop-opacity:1"/></linearGradient>
        <linearGradient id="_Linear25" x1="0" y1="0" x2="1" y2="0" gradientUnits="userSpaceOnUse" gradientTransform="matrix(55.5634,214.28,-214.28,55.5634,838.872,259.174)"><stop offset="0" style="stop-color:rgb(49,65,80);stop-opacity:1"/><stop offset="1" style="stop-color:rgb(9,13,18);stop-opacity:1"/></linearGradient>
        <linearGradient id="_Linear26" x1="0" y1="0" x2="1" y2="0" gradientUnits="userSpaceOnUse" gradientTransform="matrix(52.2626,198.161,-198.161,52.2626,910.389,230.882)"><stop offset="0" style="stop-color:rgb(42,53,64);stop-opacity:1"/><stop offset="1" style="stop-color:rgb(15,18,20);stop-opacity:1"/></linearGradient>
        <linearGradient id="_Linear27" x1="0" y1="0" x2="1" y2="0" gradientUnits="userSpaceOnUse" gradientTransform="matrix(-0.354448,226.887,-227.113,-0.354095,430.859,209.926)"><stop offset="0" style="stop-color:rgb(110,144,175);stop-opacity:1"/><stop offset="1" style="stop-color:rgb(42,61,78);stop-opacity:1"/></linearGradient>
    </defs>
</svg>
