<?xml version="1.0" encoding="UTF-8" standalone="no"?>
<!DOCTYPE svg PUBLIC "-//W3C//DTD SVG 1.1//EN" "http://www.w3.org/Graphics/SVG/1.1/DTD/svg11.dtd">
<svg width="100%" height="100%" viewBox="0 0 173 173" version="1.1" xmlns="http://www.w3.org/2000/svg" xmlns:xlink="http://www.w3.org/1999/xlink" xml:space="preserve" xmlns:serif="http://www.serif.com/" style="fill-rule:evenodd;clip-rule:evenodd;stroke-linecap:round;stroke-linejoin:round;stroke-miterlimit:1.5;">
    <g transform="matrix(1,0,0,1,-474.132,-317.798)">
        <circle cx="560.326" cy="403.992" r="84.694" style="fill:none;stroke:rgb(235,235,235);stroke-width:3px;"/>
        <g transform="matrix(0.724667,0,0,0.724667,154.276,110.981)">
            <circle cx="560.326" cy="403.992" r="84.694" style="fill:none;stroke:rgb(235,235,235);stroke-width:4.14px;"/>
        </g>
        <g transform="matrix(2.85166e-17,0.465711,-0.465711,2.85166e-17,748.47,97.7913)">
            <path d="M475.632,403.992L645.02,403.992" style="fill:none;stroke:rgb(235,235,235);stroke-width:6.44px;"/>
        </g>
        <g transform="matrix(2.85166e-17,0.465711,-0.465711,2.85166e-17,748.47,187.791)">
            <path d="M475.632,403.992L645.02,403.992" style="fill:none;stroke:rgb(235,235,235);stroke-width:6.44px;"/>
        </g>
        <g transform="matrix(-0.465711,5.70332e-17,-5.70332e-17,-0.465711,866.276,591.885)">
            <path d="M475.632,403.992L645.02,403.992" style="fill:none;stroke:rgb(235,235,235);stroke-width:6.44px;"/>
        </g>
        <g transform="matrix(-0.465711,5.70332e-17,-5.70332e-17,-0.465711,776.276,591.885)">
            <path d="M475.632,403.992L645.02,403.992" style="fill:none;stroke:rgb(235,235,235);stroke-width:6.44px;"/>
        </g>
        <g transform="matrix(1.56058e-17,0.254862,-0.254862,1.56058e-17,663.288,201.661)">
            <path d="M475.632,403.992L645.02,403.992" style="fill:none;stroke:white;stroke-width:31.39px;"/>
        </g>
        <g transform="matrix(1.56058e-17,0.254862,-0.254862,1.56058e-17,663.288,321.249)">
            <path d="M475.632,403.992L645.02,403.992" style="fill:none;stroke:white;stroke-width:31.39px;"/>
        </g>
        <g transform="matrix(-0.254862,-3.12116e-17,3.12116e-17,-0.254862,762.926,507.223)">
            <path d="M475.632,403.992L645.02,403.992" style="fill:none;stroke:white;stroke-width:31.39px;"/>
        </g>
        <g transform="matrix(-0.254862,-3.12116e-17,3.12116e-17,-0.254862,643.337,507.223)">
            <path d="M475.632,403.992L645.02,403.992" style="fill:none;stroke:white;stroke-width:31.39px;"/>
        </g>
    </g>
</svg>
