<?xml version="1.0" encoding="UTF-8" standalone="no"?>
<!DOCTYPE svg PUBLIC "-//W3C//DTD SVG 1.1//EN" "http://www.w3.org/Graphics/SVG/1.1/DTD/svg11.dtd">
<svg width="100%" height="100%" viewBox="0 0 122 122" version="1.1" xmlns="http://www.w3.org/2000/svg" xmlns:xlink="http://www.w3.org/1999/xlink" xml:space="preserve" xmlns:serif="http://www.serif.com/" style="fill-rule:evenodd;clip-rule:evenodd;stroke-linejoin:round;stroke-miterlimit:2;">
    <g transform="matrix(1,0,0,1,-313.874,-213.28)">
        <g transform="matrix(1,0,0,1,-215.707,-72.3495)">
            <path d="M590.125,285.63C623.541,285.63 650.67,312.759 650.67,346.174C650.67,379.589 623.541,406.718 590.125,406.718C556.71,406.718 529.581,379.589 529.581,346.174C529.581,312.759 556.71,285.63 590.125,285.63ZM590.125,295.913C617.865,295.913 640.386,318.434 640.386,346.174C640.386,373.914 617.865,396.435 590.125,396.435C562.386,396.435 539.864,373.914 539.864,346.174C539.864,318.434 562.386,295.913 590.125,295.913Z" style="fill:white;"/>
        </g>
        <g transform="matrix(1,0,0,1,-13.1373,-11.8052)">
            <g transform="matrix(1.01405,0.337275,-0.315604,0.948891,200.43,-146.564)">
                <path d="M293.79,331.407C321.287,331.407 343.611,340.207 343.611,351.047C343.611,361.887 321.287,370.687 293.79,370.687C266.293,370.687 243.969,361.887 243.969,351.047C243.969,340.207 266.293,331.407 293.79,331.407ZM293.79,336.317C314.413,336.317 331.156,342.917 331.156,351.047C331.156,359.177 314.413,365.777 293.79,365.777C273.167,365.777 256.424,359.177 256.424,351.047C256.424,342.917 273.167,336.317 293.79,336.317Z" style="fill:white;"/>
            </g>
            <g transform="matrix(1,0,0,1,126.554,-9.77064)">
                <circle cx="261.001" cy="295.4" r="30.57" style="fill:white;"/>
            </g>
        </g>
    </g>
</svg>
