<?xml version="1.0" encoding="UTF-8" standalone="no"?>
<!DOCTYPE svg PUBLIC "-//W3C//DTD SVG 1.1//EN" "http://www.w3.org/Graphics/SVG/1.1/DTD/svg11.dtd">
<svg width="100%" height="100%" viewBox="0 0 122 122" version="1.1" xmlns="http://www.w3.org/2000/svg" xmlns:xlink="http://www.w3.org/1999/xlink" xml:space="preserve" xmlns:serif="http://www.serif.com/" style="fill-rule:evenodd;clip-rule:evenodd;stroke-linejoin:round;stroke-miterlimit:2;">
    <g transform="matrix(1,0,0,1,-313.874,-358.361)">
        <g transform="matrix(1,0,0,1,-215.707,72.7312)">
            <path d="M590.125,285.63C623.541,285.63 650.67,312.759 650.67,346.174C650.67,379.589 623.541,406.718 590.125,406.718C556.71,406.718 529.581,379.589 529.581,346.174C529.581,312.759 556.71,285.63 590.125,285.63ZM590.125,295.913C617.865,295.913 640.386,318.434 640.386,346.174C640.386,373.914 617.865,396.435 590.125,396.435C562.386,396.435 539.864,373.914 539.864,346.174C539.864,318.434 562.386,295.913 590.125,295.913Z" style="fill:white;"/>
        </g>
        <g transform="matrix(-1.12679,-1.37991e-16,1.34992e-16,-1.10229,806.075,893.094)">
            <path d="M361.464,443.318L351.272,443.318L361.385,399.997L404.788,399.997L414.901,443.318L404.709,443.318C403.156,456.335 394.06,466.34 383.087,466.34C372.113,466.34 363.017,456.335 361.464,443.318ZM401.536,440.957C404.444,440.957 406.805,438.543 406.805,435.571C406.805,432.598 404.444,430.185 401.536,430.185C398.628,430.185 396.267,432.598 396.267,435.571C396.267,438.543 398.628,440.957 401.536,440.957ZM397.8,443.318L368.373,443.318C369.844,451.677 375.877,457.945 383.087,457.945C390.296,457.945 396.329,451.677 397.8,443.318ZM365.032,440.957C367.94,440.957 370.301,438.543 370.301,435.571C370.301,432.598 367.94,430.185 365.032,430.185C362.125,430.185 359.764,432.598 359.764,435.571C359.764,438.543 362.125,440.957 365.032,440.957Z" style="fill:white;"/>
        </g>
    </g>
</svg>
