<?xml version="1.0" encoding="UTF-8" standalone="no"?>
<!DOCTYPE svg PUBLIC "-//W3C//DTD SVG 1.1//EN" "http://www.w3.org/Graphics/SVG/1.1/DTD/svg11.dtd">
<svg width="100%" height="100%" viewBox="0 0 122 122" version="1.1" xmlns="http://www.w3.org/2000/svg" xmlns:xlink="http://www.w3.org/1999/xlink" xml:space="preserve" xmlns:serif="http://www.serif.com/" style="fill-rule:evenodd;clip-rule:evenodd;stroke-linejoin:round;stroke-miterlimit:2;">
    <g transform="matrix(1,0,0,1,-468.553,-358.361)">
        <g transform="matrix(1,0,0,1,-61.0282,72.7312)">
            <path d="M590.125,285.63C623.541,285.63 650.67,312.759 650.67,346.174C650.67,379.589 623.541,406.718 590.125,406.718C556.71,406.718 529.581,379.589 529.581,346.174C529.581,312.759 556.71,285.63 590.125,285.63ZM590.125,295.913C617.865,295.913 640.386,318.434 640.386,346.174C640.386,373.914 617.865,396.435 590.125,396.435C562.386,396.435 539.864,373.914 539.864,346.174C539.864,318.434 562.386,295.913 590.125,295.913Z" style="fill:white;"/>
        </g>
        <g transform="matrix(1,0,0,1.18187,-0.932526,-83.5418)">
            <rect x="519.821" y="388.9" width="20.417" height="61.694" style="fill:white;"/>
        </g>
        <g transform="matrix(0.707107,0.707107,-0.603191,0.603191,418.96,-184.634)">
            <path d="M540.165,450.594L540.165,450.68L487.472,450.68L487.472,426.746L519.821,426.746L519.821,388.9L540.238,388.9L540.238,450.594L540.165,450.594Z" style="fill:white;"/>
        </g>
    </g>
</svg>
